<svg id="Layer_1" data-name="Layer 1" xmlns="http://www.w3.org/2000/svg" viewBox="0 0 639.94 512.03"><defs><style>.cls-1{fill:#00853e;}</style></defs><path class="cls-1" d="M114,227.6H92.4a28.4,28.4,0,0,0,0,56.8H114c50.7,0,76.1,61.3,40.2,97.1L139,396.8a28.45,28.45,0,0,0,38.6,41.8c.5-.5,1.1-1,1.6-1.6l15.2-15.2c35.8-35.8,97.1-10.5,97.1,40.2v21.5a28.45,28.45,0,0,0,56.9,0V462c0-26.6,17-45.9,38.2-53.4l-244.5-189A55.49,55.49,0,0,1,114,227.6ZM617,505.8l19.6-25.3a16.06,16.06,0,0,0-2.8-22.5L470.6,332c4.2-25.4,24.9-47.5,55.4-47.5h21.5a28.4,28.4,0,0,0,0-56.8H526c-50.7,0-76.1-61.3-40.2-97.1L501,115.3a28.45,28.45,0,0,0-40.2-40.2L445.6,90.3c-35.8,35.8-97.1,10.5-97.1-40.2V28.5a28.45,28.45,0,0,0-56.9-.1V50c0,50.7-61.3,76.1-97.1,40.2L179.2,75c-11.1-11.1-29.4-10.6-40.5.5L45.5,3.4A16.06,16.06,0,0,0,23,6.2L3.4,31.5A16.06,16.06,0,0,0,6.2,54L594.6,508.7A16,16,0,0,0,617,505.8ZM335.4,227.5l-62.9-48.6A47.11,47.11,0,0,1,335.9,224,21.08,21.08,0,0,1,335.4,227.5Z" transform="translate(-0.03)"/></svg>